# xmcd
#
# Track frame offsets:
#	180
#	5645
#	25812
#	38153
#	59329
#	68856
#	78967
#
# Disc length: 1216 seconds
#
# Revision: 1
# Processed by: cddbd v1.5.2PL0 Copyright (c) Steve Scherf et al.
# Submitted via: audiograbber 1.83.01
#
DISCID=5104be07
DTITLE=Mellow Yellow feat. Dirty Didi Metzger - Down and Out
DYEAR=1994
DGENRE=Blues
TTITLE0=Christo Redemptor
TTITLE1=Tennesee Woman
TTITLE2=Its my Soul
TTITLE3=Down and Out
TTITLE4=In the Groove
TTITLE5=Marschacker Boogie
TTITLE6=Just for Money
EXTD=
EXTT0=
EXTT1=
EXTT2=
EXTT3=
EXTT4=
EXTT5=
EXTT6=
PLAYORDER=
